<?xml version="1.0" encoding="utf-8"?>
<svg version="1.1" id="Ebene_1" xmlns="http://www.w3.org/2000/svg" x="0px" y="0px" width="500"
     height="500" viewBox="0 0 500 500" style="enable-background:new 0 0 500 500;" xml:space="preserve">
<style type="text/css">
	.st0{fill-rule:evenodd;clip-rule:evenodd;}
</style>
    <g>
	<path class="st0" d="M339.3,475.1c0.9,0,0-2.6-0.9-1.7L339.3,475.1z M341,409.8L341,409.8z"/>
        <path class="st1" style="fill:#97BF0D;;fill-opacity:1"
              d="M376.2,301.5c-1.7,0.9-4.3,0-3.4,3.4c-3.4,2.6,0,5.2,3.4,5.2c1.7-1.7,1.7-4.3,1.7-7.7L376.2,301.5z"/>
        <path class="st0" d="M438.1,85.1l-0.9-1.7L438.1,85.1z M437.2,81.6h0.9l-0.9-1.7V81.6z"/>
        <path class="st2" style="fill:#E5352C;fill-opacity:1" d="M217.3,375.4c-0.9,3.4,3.4,6,5.2,6.9l0.9,1.7l10.3,9.5c4.3,2.6,6.9,7.7,10.3,10.3l0.9,1.7l3.4,2.6
		c2.6,5.2,6.9,7.7,9.5,12c0.9,0.9,2.6,0.9,2.6,2.6c3.4,1.7,5.2,6.9,9.5,7.7l6,6c2.6,3.4,6,7.7,11.2,8.6c1.7,2.6,3.4,6.9,6,8.6
		l0.9,1.7c2.6,2.6,6.9,4.3,8.6,8.6c1.7,0,1.7,2.6,3.4,3.4c0.9,0.9,2.6,0.9,2.6,2.6c1.7,0,1.7,1.7,2.6,1.7c0.9,0.9,2.6,2.6,2.6,4.3
		c3.4,1.7,6,6,9.5,6.9l0.9,2.6h2.6l0.9,2.6l1.7,0.9v1.7l1.7,0.9l2.6,4.3l2.6,0.9l1.7,2.6l4.3,0.9l6-7.7l0.9-3.4l-0.9-4.3v-4.3
		l2.6-5.2c-0.9-0.9,0-2.6,0.9-3.4v-3.4l1.7-0.9v-1.7l1.7-3.4c0-1.7-0.9-3.4,0.9-5.2c-1.7-6.9,1.7-10.3,1.7-15.5l2.6-5.2
		c-0.9-3.4,1.7-6.9,2.6-10.3v-1.7c0.9-0.9,2.6-2.6,1.7-5.2l4.3-11.2c1.7-4.3,4.3-8.6,3.4-14.6l2.6-7.7l1.7-6l0.9-1.7v-3.4l2.6-6
		c0-4.3,1.7-7.7,2.6-11.2c-0.9-1.7-1.7-2.6-0.9-4.3c-3.4-3.4-8.6,2.6-12.9,2.6c-7.7,4.3-20.6,6.9-29.2,11.2c-3.4,0-6.9,1.7-11.2,3.4
		c-1.7-0.9-5.2,0-6.9,0.9c-4.3-0.9-9.5,1.7-12.9,0.9c-6,3.4-12.9,3.4-17.2,4.3h-12.9l-4.3,0.9h-7.7l-8.6,0.9l-6.9-0.9h-12.9l-6-0.9
		h-1.7l-1.7-0.9C224.1,377.1,221.6,375.4,217.3,375.4z M352.1,386.6l0.9,0.9c-0.9,0.9-0.9,1.7-2.6,1.7
		C351.3,387.5,352.1,388.3,352.1,386.6z M337.5,485.4c-0.9-1.7-0.9-2.6,0.9-2.6V482h-1.7l-0.9-6c1.7-0.9,1.7-1.7,1.7-3.4l-1.7-0.9
		c0.9,0,0.9,0,0,0h1.7v-3.4l1.7-0.9c0,1.7,1.7,1.7,2.6,2.6l-0.9,0.9c2.6,0,1.7,3.4,0.9,4.3c1.7,0.9,0,3.4,0.9,5.2
		c-2.6,0.9-0.9,4.3-3.4,5.2l-2.6,2.6C335.8,486.3,336.7,486.3,337.5,485.4z M344.4,467.4l0.9-0.9
		C346.1,467.4,344.4,468.2,344.4,467.4z M343.6,455.3l1.7-3.4l1.7,0.9v-2.6h-2.6c-0.9-1.7,2.6-1.7,2.6-0.9v5.2L343.6,455.3z
		 M347.8,443.3l0.9-0.9l0.9,0.9H347.8z M332.4,427.8c-0.9-0.9-1.7-2.6-0.9-3.4h1.7l0.9,3.4H332.4z M316.9,423.5v-4.3
		c1.7,0,2.6,2.6,2.6,5.2L316.9,423.5z M357.3,414.1c0.9,0,0.9-1.7,1.7-0.9C359,414.1,358.2,416.7,357.3,414.1z M333.2,417.5l0.9,1.7
		l-1.7,0.9L333.2,417.5z M353,408.9c0.9-3.4,4.3,0,2.6,1.7L353,408.9z M341.8,411.5h-1.7c0-1.7-1.7-4.3,0-6h1.7V411.5z M352.1,398.6
		l1.7,5.2l-0.9,1.7C351.3,403.8,351.3,400.3,352.1,398.6z M303.2,409.8h1.7c-0.9,0.9,0.9,1.7-0.9,2.6
		C304,411.5,302.3,410.7,303.2,409.8z M351.3,396c0.9-0.9,0.9-0.9,0.9,0.9L351.3,396z M346.1,387.5l0.9,1.7L346.1,387.5z
		 M347.8,383.2c0,0.9-0.9,1.7-1.7,0.9c-0.9-2.6,1.7-1.7,2.6-3.4l-0.9-1.7l1.7-2.6l3.4-2.6l0.9,2.6c-3.4,0.9-0.9,3.4-1.7,6
		L347.8,383.2z M368.5,374.6l-0.9-4.3l-0.9,0.9c-0.9-0.9-1.7-1.7-0.9-2.6h4.3l0.9,4.3C370.2,373.7,369.3,376.3,368.5,374.6z
		 M359.9,369.4v-0.9l1.7,1.7L359.9,369.4z"/>
        <path class="st1" style="fill:#97BF0D;;fill-opacity:1" d="M396,305.8l1.7,0.9c-0.9,2.6,0.9,6.9,3.4,6.9c4.3,0,6-1.7,9.5-2.6l2.6-3.4l3.4-0.9l1.7-1.7l3.4-3.4
		c2.6,0.9,4.3-2.6,6.9-3.4h1.7c6-0.9,9.5-5.2,11.2-8.6l9.5-8.6h3.4c5.2-2.6,9.5-4.3,12.9-7.7l7.7-1.7l2.6-2.6c2.6-0.9,6-0.9,7.7-3.4
		c0.9-1.7,0-3.4,1.7-3.4c2.6-0.9,6-0.9,7.7-3.4c0.9-4.3-1.7-10.3,0-14.6c-2.6-6-0.9-12-2.6-18l0.9-5.2c-1.7-2.6-0.9-6-0.9-8.6
		l-0.9-7.7c-0.9-2.6,0.9-4.3-0.9-6.9v-5.2l0.9-1.7l-0.9-6l0.9-3.4l-0.9-1.7v-6l-0.9-1.7v-2.6l-0.9-6.9l-0.9-11.2
		c0-2.6-3.4-2.6-5.2-3.4c-6,0-7.7,3.4-12,5.2c-1.7,3.4-8.6,5.2-10.3,8.6l-10.3,6l-4.3,3.4v0.9c-2.6,2.6-6,3.4-8.6,5.2l-1.7,2.6
		l-4.3,2.6v0.9c-1.7,1.7-5.2,2.6-6,4.3c-5.2,1.7-9.5,5.2-12.9,7.7c-6.9,2.6-11.2,7.7-18,9.5c-6,5.2-15.5,6.9-21.5,11.2
		c-2.6,0-4.3,3.4-6.9,3.4h-2.6c-3.4,0.9-5.2,3.4-7.7,4.3H353l-7.7,4.3c-0.9-0.9-1.7,0.9-3.4,0.9l-5.2,1.7l-0.9,0.9l-7.7,0.9
		c-4.3,1.7-8.6,3.4-13.7,3.4c-6.9,2.6-14.6,2.6-21.5,5.2h-9.5l-1.7,0.9l-4.3,0.9c-3.4,0.9-5.2,4.3-8.6,5.2h-6l-10.3,5.2
		c-1.7,0-5.2,0.9-6,2.6l1.7,2.6l-1.7,1.7l0.9,2.6c-2.6,0-1.7-2.6-2.6-4.3c-2.6-3.4-11.2-3.4-12.9,0.9l-1.7,4.3
		c-2.6,0.9-4.3-0.9-6-0.9l-5.2,0.9h-2.6l-4.3-0.9c-1.7,0-3.4-1.7-6,0c-1.7,0.9-2.6,2.6-4.3,2.6l-5.2,2.6c-1.7,0-3.4-1.7-5.2-0.9
		c-1.7,0-1.7-1.7-4.3-1.7c-1.7-2.6-5.2-3.4-7.7-2.6l-1.7-0.9c-5.2-0.9-11.2,0.9-17.2,0.9c-2.6,0-4.3-0.9-5.2,1.7
		c-1.7-1.7-4.3-0.9-6-0.9l-2.6-0.9l-2.6,0.9l-4.3-0.9l-1.7,0.9l-2.6-0.9l-1.7,0.9h-11.2l-7.7,0.9h-7.7c-3.4-2.6-5.2-6-9.5-6
		l-3.4,0.9h-6c-2.6-2.6-6.9-1.7-10.3-2.6c-6,0.9-9.5-0.9-13.7-0.9l-2.6-0.9c-0.9,1.7-3.4,2.6-3.4,5.2l-2.6-1.7l1.7-0.9
		c-0.9-4.3-4.3-4.3-6.9-6c-1.7,0.9-2.6,2.6-4.3,2.6c-2.6-0.9-2.6-3.4-5.2-4.3H36c-2.6-0.9-6.9-3.4-9.5-0.9c-0.9,2.6,1.7,3.4,0.9,6
		c1.7,1.7,1.7,4.3,2.6,6l3.4,8.6c1.7,4.3,2.6,9.5,5.2,12.9l1.7,7.7l1.7,2.6c1.7,3.4,1.7,6.9,4.3,9.5c1.7,3.4,1.7,6.9,2.6,11.2
		l3.4,8.6v1.7c0,2.6,2.6,5.2,1.7,7.7l2.6,5.2c0.9,1.7,3.4,1.7,5.2,3.4l5.2,0.9l2.6,0.9l5.2,0.9c5.2-0.9,9.5,1.7,12.9,3.4
		c3.4,0,5.2,1.7,7.7,2.6c5.2,0,9.5,2.6,14.6,3.4h4.3l2.6,0.9l9.5,0.9c8.6-1.7,15.5,0.9,23.2,0c2.6,0.9,6.9,1.7,9.5,0.9h7.7
		c3.4,0.9,5.2,2.6,8.6,0.9c2.6,0,5.2,1.7,7.7,0.9l4.3-0.9c1.7,0,4.3-1.7,6-0.9h16.3l0.9-0.9h9.5l2.6,0.9l3.4-0.9h7.7l6-0.9l3.4-1.7
		c2.6,0,5.2-0.9,6.9-3.4c2.6-0.9,4.3,0,6.9,0.9l1.7,0.9c1.7,0,2.6-0.9,3.4,0.9l6-0.9c3.4-4.3,8.6-2.6,13.7-2.6
		c3.4-0.9,5.2-1.7,8.6-0.9l6.9-3.4l2.6,0.9c2.6,0,5.2-1.7,6.9-3.4l5.2,0.9l1.7-0.9l7.7-0.9l10.3-3.4c1.7,0,3.4,0.9,5.2-0.9h4.3
		l4.3-0.9l3.4-0.9l2.6,0.9l3.4-1.7l1.7-0.9l2.6-0.9l5.2-1.7l6-2.6h2.6l1.7-0.9h2.6l1.7-0.9l5.2-2.6l3.4-2.6l2.6-0.9l1.7-1.7
		c0.9-0.9,2.6-2.6,2.6-4.3l-0.9-3.4L396,305.8z M330.7,323c0,0,1.7,0,2.6,1.7l-2.6,0.9v-0.9c0-3.4-3.4-1.7-5.2-3.4l5.2-1.7V323z
		 M384.8,314.4v1.7V314.4z M255.1,339.3l0.9-4.3l2.6,0.9c0,2.6,2.6,2.6,3.4,4.3h-2.6h-0.9l0.9,1.7l-0.9,0.9L255.1,339.3z
		 M240.5,341.9c1.7,0,0.9,1.7,0,1.7V341.9z M282.6,334.2c0.9,0,0-1.7,1.7-2.6C286,332.5,284.3,335.9,282.6,334.2z M371,307.6
		l-1.7-0.9c-0.9-1.7-1.7-4.3,0-4.3v-0.9c1.7,0.9,2.6-1.7,4.3-1.7s2.6,1.7,4.3,0.9c0,1.7,0.9,3.4,2.6,4.3l0.9-2.6
		c2.6,0,2.6-2.6,3.4-4.3c1.7-1.7,4.3-3.4,6.9-3.4l-0.9-3.4c0.9-0.9,3.4-0.9,4.3-2.6c0.9,1.7,2.6,1.7,3.4,1.7l1.7,1.7l-4.3,4.3v4.3
		c0.9,0.9,1.7,2.6,0,3.4v-1.7l-1.7-0.9c-1.7,0.9-1.7,2.6-3.4,2.6l-0.9,6h-5.2l-3.4,2.6c0,0-1.7-0.9-1.7,0.9
		c-0.9-4.3-4.3-2.6-6.9-1.7L371,307.6z M310,322.2l1.7,0.9c0.9,0.9,0,2.6-0.9,3.4l-1.7-4.3H310z M229.3,341.1L229.3,341.1z
		 M339.3,317l0.9-2.6l-1.7-1.7c1.7-0.9,1.7-2.6,3.4-2.6c0,1.7,1.7,1.7,0.9,3.4l-1.7,0.9c0,1.7,0.9,1.7,1.7,2.6
		C342.7,318.7,340.1,317,339.3,317z M268,331.6l0.9-0.9v1.7L268,331.6z M293.7,326.5l-0.9-1.7v-0.9h0.9l0.9,2.6H293.7z M310,319.6
		v0.9l-0.9,0.9v-0.9L310,319.6z M410.6,295.5l3.4,0.9l-0.9,1.7C412.3,297.3,410.6,297.3,410.6,295.5z M191.5,344.5v-1.7l0.9-0.9
		C193.2,342.8,192.3,344.5,191.5,344.5z M336.7,312.7l-1.7,0.9v-0.9H336.7z M267.1,326.5l1.7-2.6l1.7,0.9l-0.9,1.7H267.1z
		 M256.8,324.7l1.7,2.6l-2.6,0.9C255.1,327.3,255.9,325.6,256.8,324.7z M182.9,340.2v0.9V340.2z M363.3,300.7c-1.7,1.7-3.4,0-4.3,0
		l-4.3,3.4c0-1.7-0.9-3.4-2.6-4.3c1.7-2.6,6.9-1.7,5.2-6c0.9-1.7,2.6-0.9,4.3-1.7c3.4,0.9,0,4.3-0.9,5.2l2.6,1.7
		C361.6,299,363.3,299.8,363.3,300.7z M335.8,307.6v-4.3c1.7,0,3.4,0.9,3.4,2.6L335.8,307.6z M370.2,298.1l-1.7-4.3h1.7
		c0.9,1.7,2.6,2.6,4.3,1.7c0.9-0.9,1.7-1.7,3.4-0.9l-0.9,0.9C374.5,295.5,372.8,299,370.2,298.1z M345.3,299c0.9,1.7,3.4,0,3.4,1.7
		c-0.9,0.9-0.9,1.7-2.6,1.7L345.3,299z M406.3,288.7v0.9l-0.9,0.9L406.3,288.7z M226.7,324.7h1.7l0.9-1.7l0.9,0.9
		c-1.7,0.9-1.7,1.7-1.7,3.4C228.4,325.6,226.7,326.5,226.7,324.7z M328.9,305c-0.9-1.7,2.6-3.4,3.4-1.7
		C331.5,305,330.7,305,328.9,305z M378.8,293l0.9,0.9l-1.7,0.9C377.1,293,378.8,293,378.8,293z M384.8,291.2h0.9v0.9L384.8,291.2z
		 M307.5,304.1c1.7,0,3.4,2.6,1.7,3.4C307.5,306.7,309.2,304.1,307.5,304.1z M387.4,286.9l0.9,1.7l-0.9,0.9V286.9z M184.6,326.5
		c2.6,0,2.6,3.4,1.7,4.3C184.6,329.9,183.8,328.2,184.6,326.5z M334.1,297.3c1.7-1.7,0.9-2.6,0.9-4.3l-0.9-1.7l0.9-1.7l6,5.2
		l-0.9,1.7l-5.2,1.7L334.1,297.3z M355.6,293l0.9,0.9L355.6,293z M191.5,327.3l-0.9,0.9L191.5,327.3z M384.8,284.4l1.7,1.7
		L384.8,284.4z M238.7,315.3l2.6,0.9C240.5,316.2,238.7,317,238.7,315.3z M341.8,293l1.7,0.9L341.8,293z M236.2,311h2.6
		c0,1.7-0.9,0.9-1.7,1.7L236.2,311z M155.4,323.9c0-0.9-1.7-1.7-0.9-2.6h0.9l1.7,1.7C156.3,323,156.3,324.7,155.4,323.9z
		 M326.4,284.4h0.9v1.7h-0.9V284.4z M371.9,275.8l-0.9-0.9h2.6l-0.9,0.9H371.9z M376.2,271.5c0.9-2.6-1.7-2.6-0.9-5.2
		c2.6,0.9,2.6,4.3,2.6,6L376.2,271.5z M369.3,262.9l0.9,2.6C366.7,268,366.7,259.5,369.3,262.9z M186.3,301.5v2.6
		C184.6,304.1,185.5,302.4,186.3,301.5z M460.4,240.6c0,2.6-1.7,4.3-4.3,3.4c-1.7-0.9-1.7-2.6-3.4-2.6l1.7-3.4
		c3.4-0.9,5.2,0,6.9,0.9L460.4,240.6z M332.4,263.7v0.9l-0.9-0.9l1.7-0.9h1.7l0.9,0.9c0.9-0.9,1.7,0.9,1.7,1.7L332.4,263.7z
		 M345.3,263.7l0.9-0.9L345.3,263.7z M212.1,290.4l0.9,0.9L212.1,290.4z M384.8,253.4l1.7-0.9l-0.9,1.7L384.8,253.4z M387.4,250.9
		c1.7,0,3.4,0,4.3,1.7C390.8,254.3,389.1,251.7,387.4,250.9z M285.1,269.8l0.9-0.9l3.4,2.6C288.6,273.2,286,271.5,285.1,269.8z
		 M367.6,252.6c-1.7,0-2.6-2.6-4.3-3.4l4.3-2.6c1.7,1.7,0.9,4.3,1.7,6H367.6z M267.1,269.8h1.7v0.9l-1.7,1.7V269.8z M240.5,276.6
		l0.9-0.9l0.9,1.7L240.5,276.6z M253.3,272.3l1.7-3.4v-5.2l1.7,0.9c0,1.7-0.9,4.3,0.9,5.2l-0.9,1.7c-0.9,0-1.7,0.9-0.9,1.7l-1.7,0.9
		L253.3,272.3z M339.3,254.3l1.7-1.7l1.7,1.7l-3.4,0.9V254.3z M334.1,255.2v-0.9h2.6L335,256L334.1,255.2z M381.4,244l4.3-0.9
		C386.5,245.7,383.1,244.8,381.4,244z M264.5,266.3l1.7-0.9v4.3C263.7,271.5,262.8,268,264.5,266.3z M345.3,250v1.7l-0.9,0.9
		C343.6,251.7,344.4,250,345.3,250z M337.5,252.6l-0.9,0.9L337.5,252.6z M450.9,227.7l-0.9,1.7h-0.9
		C448.4,228.5,449.2,225.9,450.9,227.7z M281.7,262l-1.7,0.9l-0.9-4.3l1.7,0.9c-0.9,0.9,0,1.7,1.7,2.6l0.9-0.9h2.6
		c-0.9,0.9-0.9,2.6-2.6,2.6L281.7,262z M237.9,272.3c0.9,0,1.7-0.9,1.7,0.9L237.9,272.3z M249.9,268l-0.9,0.9c0-0.9,0,0,0,0
		s-1.7,0-0.9-0.9H249.9z M359.9,242.3h2.6C363.3,244.8,359.9,244.8,359.9,242.3z M377.1,235.4l0.9,0.9l-0.9,0.9V235.4z M249.9,262.9
		l0.9-0.9v0.9H249.9z M146,282.6l1.7-1.7C149.4,282.6,146.8,285.2,146,282.6z M347,238.8l0.9-0.9l0.9,0.9H347z M336.7,239.7
		l-0.9-1.7h2.6v0.9L336.7,239.7z M147.7,274.1l0.9-2.6h0.9l1.7,3.4C150.3,276.6,148.5,275.8,147.7,274.1z M127.9,280.1
		c-0.9-0.9,0-1.7,0.9-1.7l0.9,0.9L127.9,280.1z M479.3,201l1.7,1.7l-0.9,0.9h-0.9V201z M444.1,205.3c2.6,0,4.3,2.6,6,3.4v0.9
		l-2.6,0.9C446.6,209.6,444.1,207.9,444.1,205.3z M480.1,193.3h1.7l-0.9,2.6L480.1,193.3z M450.9,195v1.7c-2.6-1.7-6-5.2-4.3-8.6
		l-1.7,0.9c-0.9-2.6,0.9-2.6,0.9-2.6c1.7,1.7,2.6,3.4,5.2,4.3v2.6l1.7,1.7l2.6-2.6l1.7,1.7l-1.7,1.7
		C453.5,196.7,452.7,195.9,450.9,195z"/>
        <path class="st2" style="fill:#E5352C;fill-opacity:1" d="M297.2,215.6c0.9-2.6,3.4-1.7,6-2.6l3.4-2.6l3.4-0.9l6-1.7c1.7-0.9,3.4-2.6,5.2-1.7l9.5-4.3
		c6,0,11.2-3.4,16.3-6.9v-6c1.7,0.9,0.9,2.6,1.7,3.4h2.6l1.7-2.6c1.7-0.9,2.6,0,3.4,0.9l9.5-1.7c1.7,0.9,3.4-1.7,5.2-1.7l3.4-0.9
		l5.2-4.3l6.9-1.7c3.4-1.7,5.2-4.3,7.7-6.9c4.3-0.9,6,0,9.5-1.7l2.6-1.7l1.7-0.9l6-3.4l5.2-2.6l5.2-6l2.6-11.2
		c0.9-4.3,0-9.5,3.4-12.9l1.7-8.6l2.6-4.3V116l2.6-5.2l1.7-8.6l0.9-1.7l0.9-6.9l1.7-5.2v-8.6l1.7-4.3l2.6-4.3v-5.2l0.9-2.6l0.9-5.2
		c1.7-4.3,2.6-6.9,0.9-11.2c-5.2,0-11.2,1.7-15.5,4.3h-2.6l-2.6,2.6h-4.3l-1.7,0.9c-3.4,1.7-6.9,0-8.6,2.6c-3.4,0-6.9,0.9-9.5,2.6
		c-4.3,0-7.7,1.7-11.2,2.6l-1.7,0.9c-3.4-0.9-9.5,0-12.9,2.6h-1.7c-1.7,0.9-3.4,0.9-3.4,2.6c-2.6-0.9-4.3,0-7.7,0.9
		c-5.2,0.9-11.2,1.7-14.6,5.2c-4.3-1.7-7.7-0.9-11.2,1.7l-2.6,1.7c-2.6,0.9-5.2,0-7.7,1.7h-6l-2.6,1.7l-4.3,0.9l-5.2,1.7
		c-4.3,4.3-12.9,2.6-18,6.9l-7.7,2.6l-6,0.9l-12.9,3.4c-2.6,0.9-5.2,4.3-8.6,3.4l-6,1.7h-1.7c-3.4,0.9-6,5.2-9.5,5.2h-2.6l-0.9,0.9
		c-3.4,0-8.6,0-10.3,1.7c-2.6,0-6.9,0.9-8.6,2.6l-10.3,2.6l-2.6,1.7h-3.4l-1.7,0.9l-2.6-0.9l-4.3,3.4c-3.4-0.9-7.7,0-12,1.7
		l-4.3,0.9c-3.4-0.9-4.3,1.7-6.9,1.7h-2.6l-3.4,0.9h-4.3l-6,3.4c-1.7,0-5.2-0.9-6,0.9c-3.4-0.9-6.9,1.7-9.5,1.7
		c-1.7,1.7-4.3,0.9-6,1.7l-6.9,1.7l-5.2,1.7c-4.3,0-9.5,0-12,3.4c-4.3,0-10.3,0-12.9,3.4H91l-2.6,2.6h-5.2l-0.9,1.7h-5.2l-3.4,1.7
		h-2.6l-12,1.7l-0.9,0.9c-6,0.9-12,4.3-17.2,4.3c-2.6,0.9-5.2,0-6.9,1.7c-2.6,0-4.3,0.9-6,2.6c-2.6,0-8.6,1.7-11.2,0h-4.3l-6,2.6
		l-1.7,2.6l2.6,4.3l1.7,0.9c2.6,4.3,6.9,7.7,11.2,11.2h1.7l1.7,3.4c0.9,3.4,5.2,4.3,7.7,7.7l3.4,4.3l2.6,0.9l0.9,1.7
		c1.7-0.9,2.6,0.9,4.3,1.7v1.7c2.6,3.4,6,6,9.5,7.7c1.7,3.4,4.3,5.2,6.9,6c2.6,3.4,5.2,6.9,8.6,8.6l6,4.3c0.9,1.7,3.4,1.7,5.2,2.6
		l3.4,4.3l4.3,1.7l13.7-0.9l8.6-0.9l2.6,0.9c2.6,0,5.2-1.7,6.9,0h9.5l1.7-0.9h2.6l1.7-0.9h6.9l1.7-0.9l6,1.7l5.2-0.9l6-0.9h2.6
		l4.3-1.7c2.6,0,5.2,1.7,7.7,0c2.6,0.9,6-1.7,9.5-1.7l6.9,1.7c3.4-1.7,9.5-0.9,12.9-3.4c4.3,0.9,8.6-0.9,12.9-0.9l2.6,0.9l4.3-1.7h6
		l7.7-2.6c2.6,2.6,5.2,0,7.7,0l2.6,0.9c2.6,0.9,5.2,0,7.7-1.7l15.5-1.7l3.4-0.9c4.3-0.9,8.6-4.3,12.9-6l4.3-0.9
		C292.9,215.6,294.6,214.8,297.2,215.6z M255.1,216.5h-2.6l-5.2-2.6v-1.7l6.9-1.7l2.6,3.4c-0.9,0.9,0.9,0.9,0.9,1.7L255.1,216.5z
		 M328.9,195v-0.9c1.7,0,2.6,0.9,1.7,1.7S328.9,196.7,328.9,195z M202.7,220.8c-0.9,1.7-3.4-0.9-1.7-1.7L202.7,220.8z M346.1,185.6
		l1.7-0.9l-0.9,3.4L346.1,185.6z M316.9,193.3v-1.7c0,0.9,0,0,0,0l2.6,0.9v0.9H316.9z M341.8,186.4c0,0.9,1.7,0.9,0.9,1.7h-3.4
		l-0.9,0.9h-0.9c0.9-2.6,0-6-2.6-6.9c0.9-0.9,0-1.7-0.9-1.7c2.6-1.7,3.4-1.7,6-1.7c0.9,0,1.7,2.6,2.6,0.9l1.7,2.6
		C341.8,181.3,340.1,184.7,341.8,186.4z M243.9,205.3c1.7-1.7,4.3-5.2,4.3-8.6l1.7,1.7c-0.9,1.7,0,4.3,0.9,6l-6,4.3L243.9,205.3z
		 M334.1,186.4l-0.9,2.6c-0.9,0-0.9-1.7-2.6-0.9v1.7l-2.6,0.9l-2.6-2.6l-1.7,0.9v-3.4h0.9c0.9,1.7,2.6,2.6,4.3,1.7l3.4-2.6
		L334.1,186.4z M365.9,178.7l4.3-0.9v3.4l-3.4,0.9L365.9,178.7z M230.2,204.5c1.7,0.9,2.6,2.6,2.6,5.2c-0.9,2.6-3.4,1.7-5.2,0
		l-1.7,1.7c-3.4,0-1.7-4.3-0.9-6.9c1.7,0.9,3.4-0.9,1.7-2.6h2.6L230.2,204.5z M181.2,219.1c0.9-0.9,0-2.6,1.7-2.6l1.7,3.4l-1.7,0.9
		L181.2,219.1z M259.4,202.7l0.9-2.6l2.6,1.7C261.9,203.6,260.2,205.3,259.4,202.7z M375.3,178.7c-0.9-0.9,1.7-1.7,1.7,0l-0.9,0.9
		h-1.7L375.3,178.7z M212.1,213.9c-0.9,0-1.7,0.9-1.7-0.9c0.9-0.9,1.7-2.6,3.4-2.6C214.7,212.2,212.1,212.2,212.1,213.9z M219,207.9
		l0.9-1.7l1.7,2.6c-1.7,0-0.9,0.9-0.9,1.7C219.8,211.3,219.8,208.8,219,207.9z M179.5,218.2H176H179.5z M146,219.9h0.9l3.4,2.6
		l-1.7,1.7L146,219.9z M123.6,228.5c-3.4,0.9-0.9-4.3,0.9-1.7L123.6,228.5z M103,231.1c-0.9-0.9-2.6-2.6-1.7-4.3l2.6-1.7l2.6,2.6
		c-2.6,0.9-2.6,3.4-3.4,5.2V231.1z M354.7,177.8c0-1.7-2.6-2.6-2.6-5.2c-0.9-0.9-3.4-3.4-3.4-5.2c1.7,0.9,3.4,2.6,6,1.7v4.3
		l-0.9,0.9c0,0.9,0.9,1.7,1.7,0.9v4.3L354.7,177.8z M251.6,198.5l-1.7-0.9h2.6l1.7,2.6C252.5,201,252.5,200.2,251.6,198.5z
		 M299.7,186.4c0.9,0.9,0,2.6-0.9,3.4V189c-0.9,0.9-1.7-1.7-0.9-2.6h0.9l0.9,0.9V186.4z M260.2,195.9l0.9-0.9l0.9,0.9l-0.9,1.7
		L260.2,195.9z M361.6,175.3v-0.9c0-0.9,0-1.7,1.7-1.7l4.3,0.9l-0.9,1.7C365,173.5,363.3,175.3,361.6,175.3z M132.2,220.8
		c2.6-0.9,4.3,0.9,3.4,2.6C133.1,225.9,132.2,222.5,132.2,220.8z M241.3,201l-0.9-0.9c0.9-1.7,0.9-3.4,2.6-4.3l-0.9,1.7v0.9h0.9
		l-0.9,2.6H241.3z M346.1,175.3v0.9c1.7-0.9,3.4,2.6,0,2.6c-0.9-0.9-1.7-2.6-0.9-3.4H346.1z M231.9,199.3l2.6-0.9
		C237,201.9,231.9,201.9,231.9,199.3z M188.9,206.2l2.6-1.7l0.9,2.6l-1.7,0.9L188.9,206.2z M365,168.4l0.9-1.7l1.7,0.9h0.9
		c-1.7,0,0.9,2.6,0,2.6L365,168.4z M220.7,199.3l0.9,0.9L220.7,199.3z M210.4,201.9v-3.4l2.6-0.9c-0.9,0.9-1.7,3.4-0.9,4.3h-0.9
		H210.4z M125.3,219.9l0.9-0.9v0.9H125.3z M373.6,163.2l1.7,0.9c0-0.9,0.9-2.6,1.7-1.7c0.9,0.9,1.7,4.3-0.9,4.3L373.6,163.2z
		 M243,194.2v-1.7h0.9v1.7H243z M216.4,195.9c-0.9,0.9-2.6,0-2.6,1.7c-0.9-1.7-1.7-3.4-0.9-4.3l3.4,1.7l0.9-0.9l2.6,0.9v3.4
		L216.4,195.9z M343.6,171v0.9l-0.9-0.9H343.6C342.7,171,343.6,171,343.6,171z M227.6,193.3l0.9-1.7l1.7,0.9l-1.7,1.7L227.6,193.3z
		 M107.3,215.6c0.9-2.6-3.4-6-0.9-7.7c0.9,0,1.7,2.6,3.4,1.7c0.9,2.6,0.9,5.2,2.6,6C111.6,218.2,109,216.5,107.3,215.6z
		 M236.2,189.9c-1.7,0.9-3.4,0.9-4.3-0.9c1.7-1.7,4.3-1.7,6-0.9C237,189,237,190.7,236.2,189.9z M136.5,208.8l-0.9,2.6h-1.7v-0.9
		L136.5,208.8z M309.2,170.1h0.9l0.9,1.7C310,172.7,308.3,170.1,309.2,170.1z M286.9,174.4l1.7-1.7l0.9,0.9
		C289.4,175.3,288.6,174.4,286.9,174.4z M380.5,152.1l-0.9,1.7L380.5,152.1z M229.3,182.1c1.7,0,0.9,1.7,0.9,1.7L229.3,182.1z
		 M137.4,203.6l-1.7-1.7c0.9,0,5.2-1.7,4.3,0C138.2,201,138.2,202.7,137.4,203.6z M404.5,144.3h4.3C408,145.2,404.5,146,404.5,144.3
		z M219.8,184.7c0-1.7,1.7-1.7,1.7-0.9L219.8,184.7z M300.6,165.8l1.7-1.7l0.9,0.9l1.7-0.9l0.9,1.7
		C304,165.8,301.5,167.5,300.6,165.8z M308.3,164.9v-1.7l1.7,1.7H308.3z M286,165.8l0.9,0.9l1.7-2.6c0.9,0,3.4,1.7,2.6,3.4l-1.7-0.9
		H286V165.8z M128.8,201h-1.7H128.8z M309.2,161.5l0.9-0.9v1.7L309.2,161.5z M123.6,200.2h1.7H123.6z M402.8,136.6h0.9v1.7
		L402.8,136.6z M405.4,135.7h1.7C408,137.5,405.4,137.5,405.4,135.7z M185.5,182.1h1.7l-0.9,0.9L185.5,182.1z M218.1,172.7l0.9-0.9
		l0.9,1.7L218.1,172.7z M411.4,129.7l3.4-1.7h0.9v1.7h0.9C417.4,132.3,412.3,131.4,411.4,129.7z M312.6,152.9l-1.7,0.9l-0.9-1.7
		c0,0,0.9,0,0,0L312.6,152.9z M63.5,204.5l0.9,0.9L63.5,204.5z M302.3,152.1v-4.3c1.7,0,3.4,1.7,3.4,2.6l-1.7,0.9v0.9H302.3z
		 M404.5,128.9l0.9-1.7v-1.7l-0.9-1.7h2.6l-1.7,1.7l2.6,3.4v0.9C406.3,130.6,404.5,129.7,404.5,128.9z M186.3,175.3
		c0-0.9,1.7-0.9,1.7,0.9L186.3,175.3z M72.9,199.3v-1.7c-1.7-1.7-4.3-0.9-5.2-2.6l0.9-0.9c1.7,1.7,4.3,3.4,7.7,4.3
		C76.4,199.3,74.7,200.2,72.9,199.3z M401.1,128c1.7-0.9,1.7,0.9,3.4,0.9l-2.6,1.7L401.1,128z M207.8,170.1L207.8,170.1z
		 M212.1,164.9c-0.9-1.7,0-2.6,0.9-3.4l3.4,1.7l-1.7,2.6L212.1,164.9z M335,136.6l0.9-1.7c1.7,1.7,2.6,1.7,3.4,4.3
		c-0.9,0.9-0.9-0.9-1.7-0.9C336.7,139.2,335.8,137.5,335,136.6z M65.2,195l-0.9,2.6C63.5,196.7,63.5,195.9,65.2,195z M280,150.3
		c0-0.9,0.9-1.7,2.6-1.7l0.9,0.9C282.6,149.5,280.8,152.9,280,150.3z M411.4,121.1l5.2-1.7l-0.9,2.6
		C414,122,411.4,123.7,411.4,121.1z M256.8,153.8v-0.9l0.9,0.9H256.8z M183.8,164.9c0.9-0.9,0-1.7,1.7-1.7l1.7,4.3
		C184.6,169.2,185.5,165.8,183.8,164.9z M274,146l-0.9,1.7C273.1,146.9,272.2,146,274,146z M359,127.1l-0.9,1.7
		C356.4,128.9,357.3,125.4,359,127.1z M200.1,160.7l0.9-0.9c0,1.7,0,0,0.9,0.9H200.1z M332.4,130.6h1.7l-0.9,0.9h0.9
		C333.2,132.3,333.2,131.4,332.4,130.6z M353,124.6L353,124.6z M356.4,122.9l0.9-0.9v1.7L356.4,122.9z M355.6,123.7h-0.9H355.6z
		 M358.2,120.3l1.7-0.9v2.6L358.2,120.3z M339.3,124.6l-3.4-1.7h-1.7V122l1.7,0.9c2.6-0.9,2.6-3.4,0.9-3.4v-1.7l3.4,1.7v1.7
		L339.3,124.6z M408,109.1h0.9L408,110V109.1z M148.5,146.9c0.9,0.9-0.9,0.9,0.9,1.7c-1.7,0.9-2.6,1.7-2.6,3.4
		c-1.7,0-2.6,0.9-1.7,2.6c-2.6,2.6,1.7,4.3,1.7,6.9l-2.6,0.9l-3.4,1.7v-3.4l-2.6-0.9c0-2.6-0.9-4.3-3.4-3.4l-0.9,0.9
		c-0.9-1.7-5.2-0.9-4.3,2.6l-2.6,0.9c0-3.4-4.3-4.3-6-2.6c-0.9-0.9-4.3-1.7-3.4-4.3c0.9,0,2.6,1.7,4.3,0.9c2.6-0.9-0.9-6-3.4-6h-1.7
		c-0.9-1.7,0.9-3.4,2.6-3.4l3.4,5.2h0.9c0,3.4,3.4,2.6,5.2,3.4c0.9-0.9,2.6-1.7,1.7-3.4c0.9,0.9,0.9-0.9,1.7-0.9l-0.9,1.7l0.9,2.6
		h2.6c0-1.7,3.4-2.6,3.4-4.3h2.6l2.6-1.7v1.7C143.4,146,147.7,147.8,148.5,146.9z M333.2,121.1l0.9,1.7
		C332.4,123.7,331.5,121.1,333.2,121.1z M248.2,140v0.9h-0.9L248.2,140z M431.2,100.5v-3.4h0.9l0.9-1.7h1.7c0,2.6-1.7,2.6-0.9,5.2
		C432.9,102.2,432,101.4,431.2,100.5z M243,139.2l0.9,0.9C243,140,242.2,140,243,139.2z M266.2,132.3c1.7-0.9,1.7,0,2.6,1.7
		l-1.7,0.9L266.2,132.3z M212.1,144.3v-3.4h1.7L212.1,144.3z M253.3,135.7c-3.4-0.9-2.6-8.6,1.7-6.9
		C255.9,131.4,255.9,134,253.3,135.7z M147.7,157.2c1.7-0.9,2.6-1.7,2.6-3.4l1.7,0.9c-0.9,0.9,1.7,0.9,0.9,1.7l-4.3,0.9H147.7z
		 M336.7,115.1l0.9,0.9C336.7,116.8,335.8,116,336.7,115.1z M405.4,100.5l0.9-0.9l0.9,0.9H405.4z M350.4,110.8v0.9l-2.6-0.9
		l-0.9,0.9l-0.9-1.7h1.7L350.4,110.8z M167.4,148.6v1.7l-4.3,0.9l-1.7-1.7v-1.7l4.3,0.9H167.4z M353.9,106.5l-1.7-0.9l2.6-1.7
		c1.7,0,2.6,0.9,2.6,1.7c0.9,1.7-1.7,2.6-0.9,4.3h-0.9C354.7,108.2,353,108.2,353.9,106.5z M435.5,91.9h1.7l-1.7,0.9V91.9z
		 M210.4,137.5c0.9-0.9,1.7,1.7,0,1.7V137.5z M172.6,146.9c-1.7,0-1.7-2.6,0-3.4c0,0.9,1.7-0.9,2.6,0.9v0.9
		C173.4,144.3,173.4,146,172.6,146.9z M154.5,149.5l1.7-1.7C157.1,149.5,155.4,151.2,154.5,149.5z M360.7,103.1
		c-1.7,0-1.7-1.7-2.6-1.7l-1.7-0.9h1.7c0.9-2.6,3.4,0,5.2,0v4.3c-0.9,0,0,0,0,0C361.6,105.7,361.6,104,360.7,103.1z M167.4,146
		L167.4,146z M237.9,128.9l0.9-0.9l0.9,3.4C237.9,130.6,237.9,129.7,237.9,128.9z M274.8,122.9c-0.9,0.9-3.4,0.9-4.3-1.7
		C270.5,118.6,277.4,120.3,274.8,122.9z M220.7,126.3l4.3,1.7c-0.9,2.6,1.7,3.4,1.7,5.2h-0.9C225,129.7,219.8,129.7,220.7,126.3z
		 M436.3,85.9l-0.9-5.2l1.7-0.9v-6c2.6,0,3.4,1.7,4.3,3.4l-1.7,3.4c0.9,3.4-0.9,5.2-2.6,6.9c-0.9,0-2.6-0.9-3.4,0.9L436.3,85.9z
		 M181.2,138.3h0.9c0.9,1.7,0,1.7-0.9,1.7V138.3z M127.9,142.6c0.9,0.9,0.9,1.7,1.7,0.9l0.9,0.9l2.6-0.9l1.7,0.9
		c0,1.7,3.4,1.7,2.6,0l1.7-0.9l-0.9,5.2l-3.4-1.7c-2.6,2.6-3.4-3.4-5.2-1.7l-1.7-0.9l-1.7,1.7c-0.9-1.7,0-2.6,0.9-3.4h-0.9v-0.9h0.9
		c-0.9,0,0,0,0,0v1.7h0.9V142.6z M280.8,116v-2.6l5.2,3.4C284.3,118.6,280.8,118.6,280.8,116z M149.4,145.2v-0.9h0.9
		C151.1,145.2,150.3,145.2,149.4,145.2z M188.9,135.7v-0.9h0.9l2.6,1.7L188.9,135.7z M207,130.6l0.9,1.7
		C207,132.3,205.2,130.6,207,130.6z M354.7,99.7h0.9v-0.9v1.7L354.7,99.7z M140.8,142.6l1.7-0.9v2.6L140.8,142.6z M354.7,95.4
		c1.7,0,1.7,1.7,0,2.6V95.4z M358.2,94.5c-0.9-0.9,0-0.9,0.9-0.9L358.2,94.5z M306.6,101.4l-0.9,1.7L306.6,101.4z M427.7,73.9h3.4
		v2.6h-0.9L427.7,73.9z M438.9,73.9c0-1.7-0.9-1.7-1.7-1.7c0-1.7-0.9-1.7-1.7-2.6l2.6-1.7l1.7,2.6l2.6,2.6L438.9,73.9z"/>
        <path class="st1" style="fill:#97BF0D;;fill-opacity:1" d="M140.8,104l1.7-1.7c2.6,0.9,5.2,0.9,6.9-0.9c3.4,0,6-0.9,7.7-2.6c2.6,0.9,4.3,0,4.3-1.7h3.4l0.9-2.6l1.7,1.7
		l5.2-0.9c2.6,0,6.9-0.9,8.6-2.6c5.2-0.9,8.6-3.4,14.6-2.6c3.4-2.6,8.6-0.9,12-3.4h4.3l1.7-0.9l0.9-0.9l9.5-2.6l12.9-4.3l7.7-1.7
		l4.3-1.7l2.6-2.6h3.4c3.4,0,5.2-1.7,6.9-2.6h7.7c0.9-2.6,4.3-1.7,6.9-2.6l0.9-0.9c3.4-1.7,6.9-1.7,8.6-3.4l6.9-0.9l11.2-4.3h3.4
		l7.7-1.7c2.6-2.6,6.9-0.9,8.6-3.4c3.4,0,6-2.6,8.6-3.4c-0.9-1.7,0.9-1.7,0.9-2.6l1.7-6.9l0.9-7.7v-2.6l0.9-6
		c-0.9-2.6,0.9-4.3,0.9-7.7l-0.9-3.4l0.9-1.7V8.6c0-1.7,0.9-2.6-0.9-4.3l-6-1.7l-6-1.7c-3.4-0.6-6.9-0.9-10.3-0.9l-2.6,0.9h-6
		l-9.5,2.6c-4.3,0-9.5-0.9-12.9,0.9c-6,0-12.9,2.6-19.8,3.4h-4.3l-6.9,2.6c-3.4,0.9-7.7,0-11.2,1.7c-9.5,1.7-21.5,4.3-30.1,8.6
		c-1.7-0.9-4.3,0-5.2,1.7c-1.7-0.9-4.3,0-5.2,0.9c-3.4,0.9-8.6,1.7-11.2,4.3c-3.4,0-6,0.9-8.6,3.4l-7.7,0.9l-1.7,1.7
		c-1.7,0.9-4.3,0.9-6,2.6l-8.6,4.3c-2.6,0.9-5.2,1.7-6,3.4c-2.6,0-3.4,2.6-5.2,3.4l-6.9,3.4l-4.3,1.7c-1.7,0.9-2.6,2.6-4.3,2.6
		l-4.3,3.4l-1.7,0.9c-3.4,0-5.2,2.6-7.7,3.4l-3.4,0.9l-1.7,2.6L109,67l-1.7,1.7c-3.4,1.7-6.9,2.6-8.6,6c-4.3,1.7-6,5.2-9.5,6.9
		c-2.6,0-3.4,2.6-6,3.4l-3.4,3.4l-4.3,0.9l-1.7,1.7l-5.2,4.3l-6.9,3.4l-1.7,1.7l-15.5,11.2v1.7l-3.4,1.7l-4.3,2.6l-3.4,2.6
		c-2.6,1.7-5.2,3.4-5.2,5.2c0.9,1.7-0.9,3.4,0.9,5.2c1.7,1.7,9.5-0.9,11.2-1.7c4.3,0,7.7-3.4,12-2.6c3.4-2.6,8.6-1.7,12-3.4
		c3.4,0,6-2.6,9.5-1.7l3.4-0.9l10.3-3.4l10.3-3.4l3.4-1.7l11.2-1.7l4.3-3.4l2.6,0.9c2.6,0.9,7.7-0.9,10.3-1.7l2.6-1.7h3.4
		C137.4,104,139.1,102.2,140.8,104z M184.6,85.1l0.9,2.6h-0.9V85.1z M172.6,85.1v-2.6c0.9,0.9,0.9-0.9,1.7-0.9
		C176,82.5,175.2,85.1,172.6,85.1z M128.8,92.8l1.7-0.9v1.7L128.8,92.8z M127.1,86.8l-1.7,0.9l-1.7,1.7c-1.7-0.9-2.6-4.3-2.6-6.9
		l2.6-0.9c1.7,0.9,2.6,4.3,4.3,3.4l0.9,2.6L127.1,86.8z M137.4,79.9h1.7l0.9,5.2l-1.7,0.9C136.5,84.2,137.4,81.6,137.4,79.9z
		 M133.1,82.5l-2.6,0.9l-0.9-3.4l2.6,0.9L133.1,82.5z M171.7,73.9l-0.9,0.9L171.7,73.9z M177.7,48.1l0.9-0.9L177.7,48.1z
		 M176.9,46.4v0.9V46.4z"/>
</g>
</svg>