<?xml version="1.0" encoding="UTF-8"?>
    <!DOCTYPE svg PUBLIC "-//W3C//DTD SVG 1.1//EN" "http://www.w3.org/Graphics/SVG/1.1/DTD/svg11.dtd">
    <svg xmlns="http://www.w3.org/2000/svg" version="1.1" viewBox="0 0 33 33" stroke="none">
        
        <path d="M11,2h1v1h-1z M12,2h1v1h-1z M13,2h1v1h-1z M14,2h1v1h-1z M19,2h1v1h-1z M21,2h1v1h-1z M22,2h1v1h-1z M10,3h1v1h-1z M11,3h1v1h-1z M15,3h1v1h-1z M16,3h1v1h-1z M17,3h1v1h-1z M18,3h1v1h-1z M19,3h1v1h-1z M20,3h1v1h-1z M22,3h1v1h-1z M4,4h1v1h-1z M5,4h1v1h-1z M6,4h1v1h-1z M10,4h1v1h-1z M12,4h1v1h-1z M13,4h1v1h-1z M14,4h1v1h-1z M15,4h1v1h-1z M16,4h1v1h-1z M19,4h1v1h-1z M20,4h1v1h-1z M21,4h1v1h-1z M22,4h1v1h-1z M26,4h1v1h-1z M27,4h1v1h-1z M28,4h1v1h-1z M4,5h1v1h-1z M5,5h1v1h-1z M6,5h1v1h-1z M10,5h1v1h-1z M13,5h1v1h-1z M15,5h1v1h-1z M17,5h1v1h-1z M19,5h1v1h-1z M20,5h1v1h-1z M22,5h1v1h-1z M26,5h1v1h-1z M27,5h1v1h-1z M28,5h1v1h-1z M4,6h1v1h-1z M5,6h1v1h-1z M6,6h1v1h-1z M10,6h1v1h-1z M11,6h1v1h-1z M16,6h1v1h-1z M18,6h1v1h-1z M20,6h1v1h-1z M26,6h1v1h-1z M27,6h1v1h-1z M28,6h1v1h-1z M10,7h1v1h-1z M11,7h1v1h-1z M13,7h1v1h-1z M14,7h1v1h-1z M19,7h1v1h-1z M20,7h1v1h-1z M22,7h1v1h-1z M10,8h1v1h-1z M12,8h1v1h-1z M14,8h1v1h-1z M16,8h1v1h-1z M18,8h1v1h-1z M20,8h1v1h-1z M22,8h1v1h-1z M11,9h1v1h-1z M12,9h1v1h-1z M13,9h1v1h-1z M16,9h1v1h-1z M19,9h1v1h-1z M22,9h1v1h-1z M4,10h1v1h-1z M7,10h1v1h-1z M8,10h1v1h-1z M9,10h1v1h-1z M10,10h1v1h-1z M14,10h1v1h-1z M18,10h1v1h-1z M19,10h1v1h-1z M21,10h1v1h-1z M22,10h1v1h-1z M23,10h1v1h-1z M25,10h1v1h-1z M26,10h1v1h-1z M27,10h1v1h-1z M28,10h1v1h-1z M29,10h1v1h-1z M2,11h1v1h-1z M6,11h1v1h-1z M9,11h1v1h-1z M11,11h1v1h-1z M14,11h1v1h-1z M17,11h1v1h-1z M18,11h1v1h-1z M19,11h1v1h-1z M22,11h1v1h-1z M25,11h1v1h-1z M26,11h1v1h-1z M29,11h1v1h-1z M30,11h1v1h-1z M2,12h1v1h-1z M4,12h1v1h-1z M5,12h1v1h-1z M6,12h1v1h-1z M7,12h1v1h-1z M8,12h1v1h-1z M9,12h1v1h-1z M22,12h1v1h-1z M23,12h1v1h-1z M25,12h1v1h-1z M30,12h1v1h-1z M2,13h1v1h-1z M5,13h1v1h-1z M6,13h1v1h-1z M9,13h1v1h-1z M10,13h1v1h-1z M11,13h1v1h-1z M21,13h1v1h-1z M22,13h1v1h-1z M24,13h1v1h-1z M25,13h1v1h-1z M26,13h1v1h-1z M27,13h1v1h-1z M2,14h1v1h-1z M5,14h1v1h-1z M7,14h1v1h-1z M8,14h1v1h-1z M9,14h1v1h-1z M11,14h1v1h-1z M22,14h1v1h-1z M23,14h1v1h-1z M24,14h1v1h-1z M27,14h1v1h-1z M29,14h1v1h-1z M2,15h1v1h-1z M4,15h1v1h-1z M7,15h1v1h-1z M9,15h1v1h-1z M21,15h1v1h-1z M22,15h1v1h-1z M24,15h1v1h-1z M27,15h1v1h-1z M30,15h1v1h-1z M2,16h1v1h-1z M6,16h1v1h-1z M7,16h1v1h-1z M8,16h1v1h-1z M9,16h1v1h-1z M10,16h1v1h-1z M11,16h1v1h-1z M21,16h1v1h-1z M23,16h1v1h-1z M24,16h1v1h-1z M27,16h1v1h-1z M28,16h1v1h-1z M30,16h1v1h-1z M5,17h1v1h-1z M7,17h1v1h-1z M10,17h1v1h-1z M11,17h1v1h-1z M21,17h1v1h-1z M23,17h1v1h-1z M27,17h1v1h-1z M30,17h1v1h-1z M3,18h1v1h-1z M4,18h1v1h-1z M6,18h1v1h-1z M8,18h1v1h-1z M9,18h1v1h-1z M11,18h1v1h-1z M21,18h1v1h-1z M23,18h1v1h-1z M24,18h1v1h-1z M26,18h1v1h-1z M3,19h1v1h-1z M6,19h1v1h-1z M7,19h1v1h-1z M10,19h1v1h-1z M11,19h1v1h-1z M23,19h1v1h-1z M28,19h1v1h-1z M30,19h1v1h-1z M2,20h1v1h-1z M3,20h1v1h-1z M4,20h1v1h-1z M7,20h1v1h-1z M8,20h1v1h-1z M10,20h1v1h-1z M21,20h1v1h-1z M26,20h1v1h-1z M27,20h1v1h-1z M28,20h1v1h-1z M30,20h1v1h-1z M6,21h1v1h-1z M9,21h1v1h-1z M11,21h1v1h-1z M13,21h1v1h-1z M15,21h1v1h-1z M16,21h1v1h-1z M17,21h1v1h-1z M18,21h1v1h-1z M23,21h1v1h-1z M24,21h1v1h-1z M29,21h1v1h-1z M30,21h1v1h-1z M2,22h1v1h-1z M3,22h1v1h-1z M5,22h1v1h-1z M7,22h1v1h-1z M8,22h1v1h-1z M9,22h1v1h-1z M10,22h1v1h-1z M11,22h1v1h-1z M12,22h1v1h-1z M13,22h1v1h-1z M14,22h1v1h-1z M15,22h1v1h-1z M16,22h1v1h-1z M20,22h1v1h-1z M21,22h1v1h-1z M22,22h1v1h-1z M23,22h1v1h-1z M24,22h1v1h-1z M25,22h1v1h-1z M26,22h1v1h-1z M27,22h1v1h-1z M28,22h1v1h-1z M10,23h1v1h-1z M11,23h1v1h-1z M12,23h1v1h-1z M15,23h1v1h-1z M16,23h1v1h-1z M19,23h1v1h-1z M20,23h1v1h-1z M22,23h1v1h-1z M26,23h1v1h-1z M27,23h1v1h-1z M30,23h1v1h-1z M10,24h1v1h-1z M11,24h1v1h-1z M12,24h1v1h-1z M14,24h1v1h-1z M16,24h1v1h-1z M19,24h1v1h-1z M22,24h1v1h-1z M24,24h1v1h-1z M26,24h1v1h-1z M27,24h1v1h-1z M28,24h1v1h-1z M29,24h1v1h-1z M30,24h1v1h-1z M10,25h1v1h-1z M12,25h1v1h-1z M13,25h1v1h-1z M15,25h1v1h-1z M19,25h1v1h-1z M21,25h1v1h-1z M22,25h1v1h-1z M26,25h1v1h-1z M27,25h1v1h-1z M29,25h1v1h-1z M4,26h1v1h-1z M5,26h1v1h-1z M6,26h1v1h-1z M11,26h1v1h-1z M12,26h1v1h-1z M14,26h1v1h-1z M17,26h1v1h-1z M21,26h1v1h-1z M22,26h1v1h-1z M23,26h1v1h-1z M24,26h1v1h-1z M25,26h1v1h-1z M26,26h1v1h-1z M29,26h1v1h-1z M4,27h1v1h-1z M5,27h1v1h-1z M6,27h1v1h-1z M12,27h1v1h-1z M15,27h1v1h-1z M16,27h1v1h-1z M20,27h1v1h-1z M21,27h1v1h-1z M22,27h1v1h-1z M25,27h1v1h-1z M26,27h1v1h-1z M27,27h1v1h-1z M28,27h1v1h-1z M4,28h1v1h-1z M5,28h1v1h-1z M6,28h1v1h-1z M10,28h1v1h-1z M13,28h1v1h-1z M14,28h1v1h-1z M15,28h1v1h-1z M17,28h1v1h-1z M19,28h1v1h-1z M20,28h1v1h-1z M23,28h1v1h-1z M26,28h1v1h-1z M27,28h1v1h-1z M29,28h1v1h-1z M30,28h1v1h-1z M12,29h1v1h-1z M13,29h1v1h-1z M14,29h1v1h-1z M15,29h1v1h-1z M19,29h1v1h-1z M20,29h1v1h-1z M23,29h1v1h-1z M24,29h1v1h-1z M27,29h1v1h-1z M28,29h1v1h-1z M11,30h1v1h-1z M16,30h1v1h-1z M18,30h1v1h-1z M19,30h1v1h-1z M23,30h1v1h-1z M25,30h1v1h-1z M26,30h1v1h-1z M27,30h1v1h-1z M28,30h1v1h-1z M30,30h1v1h-1z" fill="#003d8f"/>
        <path d="M2,2h1v1h-1z M3,2h1v1h-1z M4,2h1v1h-1z M5,2h1v1h-1z M6,2h1v1h-1z M7,2h1v1h-1z M8,2h1v1h-1z M24,2h1v1h-1z M25,2h1v1h-1z M26,2h1v1h-1z M27,2h1v1h-1z M28,2h1v1h-1z M29,2h1v1h-1z M30,2h1v1h-1z M2,3h1v1h-1z M8,3h1v1h-1z M24,3h1v1h-1z M30,3h1v1h-1z M2,4h1v1h-1z M8,4h1v1h-1z M24,4h1v1h-1z M30,4h1v1h-1z M2,5h1v1h-1z M8,5h1v1h-1z M24,5h1v1h-1z M30,5h1v1h-1z M2,6h1v1h-1z M8,6h1v1h-1z M24,6h1v1h-1z M30,6h1v1h-1z M2,7h1v1h-1z M8,7h1v1h-1z M24,7h1v1h-1z M30,7h1v1h-1z M2,8h1v1h-1z M3,8h1v1h-1z M4,8h1v1h-1z M5,8h1v1h-1z M6,8h1v1h-1z M7,8h1v1h-1z M8,8h1v1h-1z M24,8h1v1h-1z M25,8h1v1h-1z M26,8h1v1h-1z M27,8h1v1h-1z M28,8h1v1h-1z M29,8h1v1h-1z M30,8h1v1h-1z M2,24h1v1h-1z M3,24h1v1h-1z M4,24h1v1h-1z M5,24h1v1h-1z M6,24h1v1h-1z M7,24h1v1h-1z M8,24h1v1h-1z M2,25h1v1h-1z M8,25h1v1h-1z M2,26h1v1h-1z M8,26h1v1h-1z M2,27h1v1h-1z M8,27h1v1h-1z M2,28h1v1h-1z M8,28h1v1h-1z M2,29h1v1h-1z M8,29h1v1h-1z M2,30h1v1h-1z M3,30h1v1h-1z M4,30h1v1h-1z M5,30h1v1h-1z M6,30h1v1h-1z M7,30h1v1h-1z M8,30h1v1h-1z" fill="#e20031"/>

        b'<ns0:g xmlns:ns0="http://www.w3.org/2000/svg" transform="translate(12.5, 12.5) scale(1 1) translate(0, 0) scale(0.016 0.016) "><ns0:defs id="defs2946"/>\n    <ns0:path d="M 321.69737,357.21491 C 287.28947,367.10965 252.80263,373.24123 220.24561,375.68421 L 342.04386,497.30702 L 385.28509,335.97368 C 366.14474,343.46491 345.02631,350.50439 321.69737,357.21491 z M 430.11403,155.98684 C 385.74123,184.9693 331.41228,209.90351 280.88158,224.43421 C 211.38596,244.41667 140.64474,250.60526 86.609649,241.46491 L 4.0745614,159.05263 L 462.29824,35.894737 L 430.11403,155.98684 z" id="path2931" style="fill:#e20031;fill-opacity:1"/>\n    <ns0:path d="M 6.6710526,190.96053 C 6.0394737,188.60965 5.6622807,186.18421 5.4342105,183.72807 L 54.574561,232.79825 C 28.008772,223.31579 11.5,208.97807 6.6710526,190.96053 z M 497.38596,242.87719 C 462.67105,285.34649 407.07017,315.84649 317.23246,341.68421 C 225.59649,368.0307 134.16667,367.2193 84.307017,339.60965 C 66.763158,329.89035 55.763158,317.63596 51.614035,303.18421 L 25.328947,237.97807 C 26.320175,238.57456 27.307017,239.1886 28.289474,239.73246 C 82.078947,269.52193 183.01754,269.74123 285.43421,240.28947 C 367.38158,216.72368 453.30702,169.02632 497.38158,123.0307 L 497.38158,242.87719 L 497.38596,242.87719 z M 342.04386,51.662281 L 21.991228,137.16667 C 54.93421,90.149123 132.27193,43.894737 221.70614,18.179825 C 246.83333,10.95614 302.99561,1.881579 342.04386,3.3333334 L 342.04386,51.662281 z" id="path2929" style="fill:#003d8f;fill-opacity:1"/>\n</ns0:g>\n'

    </svg>
    